<svg xmlns="http://www.w3.org/2000/svg" width="32" height="32"><path d="M2.645 7.836h2l-.31 5.32c-.046.742-.136 1.336-.265 1.785-.129.454-.28.676-.453.676h-.926c-.214 0-.402.278-.562.836-.164.555-.277 1.309-.34 2.262a18.61 18.61 0 00-.016 2.027c.032.637.09 1.2.172 1.688.082.488.192.879.32 1.172.13.293.27.437.426.437h.567c.105 0 .191.191.258.574.07.383.09.817.058 1.293l-.355 5.875h-.617c-.426 0-.817-.414-1.172-1.25-.36-.836-.657-1.937-.89-3.316C.304 25.84.144 24.27.058 22.508a50.345 50.345 0 01.03-5.422l.036-.594a40.15 40.15 0 01.355-3.515c.165-1.07.356-1.985.579-2.739.218-.758.464-1.343.738-1.77.27-.421.555-.632.848-.632zM3.652 31.78L5.398 2.473c.047-.743.133-1.336.266-1.785.129-.454.277-.676.45-.676h1.85c.423 0 .813.414 1.173 1.25.355.832.652 1.941.886 3.316.239 1.375.399 2.945.489 4.707.09 1.758.078 3.567-.035 5.418l-.036.598a41.056 41.056 0 01-.355 3.515c-.16 1.07-.348 1.993-.57 2.758-.22.77-.47 1.367-.739 1.79-.27.421-.554.636-.847.636H6.328l.317-5.363c.046-.715.136-1.297.265-1.746.13-.453.281-.676.453-.676h.512c.21 0 .402-.293.57-.875.168-.582.278-1.336.332-2.262.043-.664.047-1.312.012-1.95a14.767 14.767 0 00-.172-1.687c-.082-.488-.187-.886-.316-1.191-.133-.305-.274-.457-.426-.457h-.992l-1.29 21.566c-.05.715-.136 1.297-.265 1.746-.133.454-.277.676-.445.676zm11.036-15.648l.027-.434c.012-.215.004-.39-.024-.539-.027-.144-.062-.219-.109-.219h-2.875c-.125 0-.238-.117-.336-.355a4.333 4.333 0 01-.25-.934c-.062-.382-.11-.828-.133-1.332-.023-.5-.02-1.015.012-1.547l.176-3.02h3.894c.239 0 .461.24.66.716.204.476.368 1.101.5 1.867.133.77.227 1.648.278 2.64.047.993.043 2.02-.016 3.079l-.699 11.675c-.07 1.192-.211 2.16-.43 2.899-.215.742-.46 1.113-.738 1.113l-2.875-.039c-.254 0-.484-.246-.7-.734-.21-.489-.386-1.137-.523-1.946a25.534 25.534 0 01-.28-2.78 28.182 28.182 0 01.019-3.196l.035-.598c.039-.742.11-1.43.207-2.066.097-.633.21-1.176.34-1.63.132-.448.277-.804.433-1.05.16-.25.328-.379.504-.379h2.418l-.18 2.98c-.046.716-.132 1.298-.265 1.747-.13.453-.278.676-.442.676h-1.078c-.101 0-.168.226-.195.675-.02.293-.008.551.035.774.04.226.094.34.16.34h1.742c.067 0 .122-.082.168-.239.047-.16.079-.37.09-.636l.016-.317zm5.152-8.297c.43 0 .824.414 1.18 1.25.355.832.652 1.937.89 3.316.235 1.375.395 2.953.48 4.727.087 1.773.07 3.586-.038 5.441l-.442 7.465c-.031.531-.094.953-.191 1.27-.098.32-.207.476-.324.476h-.954c-.113 0-.203-.191-.265-.574a5.503 5.503 0 01-.055-1.293l.531-9.012a17.115 17.115 0 00-.16-3.636c-.082-.489-.187-.887-.316-1.192-.133-.304-.274-.457-.426-.457h-.992l-.86 14.418c-.027.531-.09.953-.187 1.27-.098.32-.211.476-.332.476h-.95c-.105 0-.19-.191-.257-.574a5.289 5.289 0 01-.059-1.293l1.309-22.078zm5.21 7.562c-.07.254-.12.579-.152.977l-.398 6.75a4.42 4.42 0 00.047 1.031c.05.32.121.477.21.477h3.665l-.285 4.726c-.047.715-.137 1.297-.266 1.746-.129.454-.277.676-.441.676h-3.336c-.242 0-.465-.23-.664-.695-.2-.461-.367-1.082-.5-1.867a22.959 22.959 0 01-.274-2.66c-.05-.993-.043-2.004.024-3.036l.539-9.015a29.9 29.9 0 01.273-2.703c.125-.82.27-1.52.438-2.106.168-.582.355-1.035.566-1.367.211-.332.43-.5.652-.496h2.36c.242 0 .465.238.664.715.203.476.367 1.097.5 1.863.133.77.223 1.656.27 2.664a29.55 29.55 0 01-.016 3.055l-.16 2.703c-.07 1.191-.215 2.152-.43 2.879-.215.726-.457 1.094-.73 1.094h-2.672l.18-2.942c.038-.715.124-1.297.253-1.746.13-.45.281-.676.453-.676h1.078c.102 0 .165-.226.196-.675l.035-.594a3.46 3.46 0 00-.035-.797c-.043-.238-.094-.356-.16-.356h-1.645c-.09 0-.168.125-.238.375zm3.36 16.383l1.781-29.984a5.94 5.94 0 01.188-1.29c.098-.331.21-.495.332-.495h.95c.109 0 .198.191.269.574.066.383.086.812.058 1.289L30.66 24a34.357 34.357 0 01-.316 3.176c-.145.953-.313 1.765-.512 2.441-.2.676-.418 1.207-.66 1.59-.242.383-.496.574-.762.574zm0 0" fill="#ff6c2c"/></svg>