<svg xmlns="http://www.w3.org/2000/svg" viewBox="0 0 48 48" width="32" height="32"><path fill="#a64a7b" d="M43 11H5a4 4 0 00-4 4v16a4 4 0 004 4h19l8 4-2-4h13a4 4 0 004-4V15a4 4 0 00-4-4z"/><path fill="#fff" d="M40.443 19c.041 0 .132.005.277.038.342.077.559.198.82.686.31.559.46 1.283.46 2.215 0 1.398-.317 2.639-.973 3.802C40.321 27 39.805 27 39.557 27c-.041 0-.132-.005-.277-.038-.342-.077-.559-.198-.809-.666-.313-.574-.471-1.333-.471-2.253 0-1.399.314-2.63.963-3.765C39.691 19 40.218 19 40.443 19m0-3c-1.67 0-3.026.931-4.087 2.793-.904 1.582-1.356 3.332-1.356 5.25 0 1.434.278 2.662.835 3.686.626 1.173 1.548 1.88 2.783 2.16.33.074.643.111.939.111 1.687 0 3.043-.931 4.087-2.793.904-1.601 1.356-3.351 1.356-5.268 0-1.452-.278-2.662-.835-3.668-.626-1.173-1.548-1.88-2.783-2.16a4.296 4.296 0 00-.939-.111zm-12 3c.041 0 .132.005.268.036.333.076.571.207.829.689.31.558.46 1.282.46 2.214 0 1.398-.317 2.639-.973 3.802C28.321 27 27.805 27 27.557 27c-.041 0-.132-.005-.277-.038-.342-.077-.559-.198-.809-.666-.313-.574-.471-1.333-.471-2.253 0-1.399.314-2.63.963-3.765C27.691 19 28.218 19 28.443 19m0-3c-1.67 0-3.026.931-4.087 2.793-.904 1.582-1.356 3.332-1.356 5.25 0 1.434.278 2.662.835 3.686.626 1.173 1.548 1.88 2.783 2.16.33.074.643.111.939.111 1.687 0 3.043-.931 4.087-2.793.904-1.601 1.356-3.351 1.356-5.268 0-1.452-.278-2.662-.835-3.668-.626-1.173-1.565-1.88-2.783-2.16a4.296 4.296 0 00-.939-.111zM18.5 32c-.421 0-.832-.178-1.123-.505-2.196-2.479-3.545-5.735-4.34-8.343-1.144 2.42-2.688 5.515-4.251 8.119a1.5 1.5 0 01-2.733-.378c-2.212-8.127-3.007-13.95-3.039-14.194a1.5 1.5 0 012.973-.4c.007.049.571 4.177 2.033 10.199 2.218-4.208 4.078-8.535 4.102-8.59a1.5 1.5 0 012.865.388c.007.052.542 3.825 2.245 7.451.719-7.166 2.873-10.839 2.982-11.021a1.5 1.5 0 012.573 1.543C22.762 16.313 20 21.115 20 30.5a1.5 1.5 0 01-1.5 1.5z"/></svg>